<svg xmlns="http://www.w3.org/2000/svg" width="600" height="340" viewBox="0 0 600 340">
<defs><linearGradient id="bg" x1="0" y1="0" x2="1" y2="1"><stop stop-color="#14532d"/><stop offset="1" stop-color="#0f172a"/></linearGradient><linearGradient id="panel" x1="0" y1="0" x2="1" y2="1"><stop stop-color="#0f766e"/><stop offset="1" stop-color="#1d4ed8"/></linearGradient></defs>
<rect width="600" height="340" rx="26" fill="url(#bg)"/>
<rect x="22" y="22" width="82" height="34" rx="12" fill="#111827" opacity=".9"/><text x="63" y="45" text-anchor="middle" fill="#fff" font-size="22" font-family="Arial,Microsoft YaHei" font-weight="700">P006</text>
<text x="128" y="40" fill="#fff" font-size="24" font-family="Arial,Microsoft YaHei" font-weight="800">大家來找不同</text>
<rect x="34" y="70" width="248" height="180" rx="18" fill="url(#panel)"/><rect x="316" y="70" width="248" height="180" rx="18" fill="url(#panel)"/>
<rect x="70" y="112" width="56" height="78" rx="10" fill="#22c55e"/><circle cx="172" cy="136" r="28" fill="#38bdf8"/><polygon points="236,112 275,174 196,174" fill="#f97316"/><rect x="116" y="205" width="82" height="32" rx="11" fill="#34d399"/><circle cx="230" cy="214" r="15" fill="#fde68a"/>
<rect x="350" y="112" width="56" height="78" rx="10" fill="#ef4444"/><circle cx="454" cy="136" r="28" fill="#eab308"/><polygon points="518,112 557,174 478,174" fill="#38bdf8"/><rect x="387" y="205" width="100" height="32" rx="11" fill="#a78bfa"/><circle cx="530" cy="214" r="15" fill="#fff"/>
<circle cx="460" cy="136" r="38" fill="none" stroke="#22c55e" stroke-width="5"/><circle cx="517" cy="142" r="38" fill="none" stroke="#22c55e" stroke-width="5"/><circle cx="387" cy="222" r="38" fill="none" stroke="#22c55e" stroke-width="5"/>
<text x="34" y="286" fill="#f8fafc" font-size="18" font-family="Arial,Microsoft YaHei">老師自訂題庫｜上傳原圖與修改圖</text>
<text x="34" y="312" fill="#cbd5e1" font-size="16" font-family="Arial,Microsoft YaHei">標注 5 個不同位置｜經典找碴玩法</text>
</svg>