<svg xmlns="http://www.w3.org/2000/svg" width="640" height="360" viewBox="0 0 380 214">
  <defs><linearGradient id="bg" x1="0" x2="1" y1="0" y2="1"><stop stop-color="#422006"/><stop offset="1" stop-color="#020617"/></linearGradient></defs>
  <rect width="380" height="214" rx="22" fill="url(#bg)"/>
  <rect x="18" y="16" width="344" height="182" rx="18" fill="rgba(15,23,42,.58)" stroke="#fde68a" stroke-opacity=".35"/>
  <text x="32" y="42" fill="#fde68a" font-size="17" font-family="Arial" font-weight="900">P009</text>
  <text x="348" y="42" text-anchor="end" fill="#fff" font-size="22">🏷️</text>
  <rect x="58" y="78" width="70" height="58" rx="12" fill="#f8fafc"/><text x="93" y="116" text-anchor="middle" font-size="26">🖼️</text>
<rect x="162" y="78" width="70" height="58" rx="12" fill="#f8fafc"/><text x="197" y="116" text-anchor="middle" font-size="26">🖼️</text>
<rect x="266" y="78" width="70" height="58" rx="12" fill="#f8fafc"/><text x="301" y="116" text-anchor="middle" font-size="26">🖼️</text>
<rect x="70" y="154" width="68" height="26" rx="13" fill="#fde68a"/><text x="104" y="172" text-anchor="middle" font-size="14" font-family="Arial" font-weight="900" fill="#111827">Cat</text>
<rect x="170" y="154" width="68" height="26" rx="13" fill="#fde68a"/><text x="204" y="172" text-anchor="middle" font-size="14" font-family="Arial" font-weight="900" fill="#111827">Bus</text>
<rect x="270" y="154" width="68" height="26" rx="13" fill="#fde68a"/><text x="304" y="172" text-anchor="middle" font-size="14" font-family="Arial" font-weight="900" fill="#111827">Apple</text>
  <rect x="26" y="174" width="328" height="18" rx="9" fill="rgba(255,255,255,.08)"/>
  <text x="190" y="188" text-anchor="middle" fill="#fff" font-size="13" font-family="Arial" font-weight="800">Image Label Match</text>
</svg>