<svg xmlns="http://www.w3.org/2000/svg" width="640" height="360" viewBox="0 0 380 214">
  <defs>
    <linearGradient id="bg" x1="0" x2="1" y1="0" y2="1"><stop stop-color="#1e1b4b"/><stop offset="1" stop-color="#020617"/></linearGradient>
    <marker id="arrow" markerWidth="10" markerHeight="10" refX="8" refY="3" orient="auto"><path d="M0,0 L0,6 L9,3 z" fill="#facc15"/></marker>
  </defs>
  <rect width="380" height="214" rx="22" fill="url(#bg)"/>
  <rect x="18" y="16" width="344" height="182" rx="18" fill="rgba(15,23,42,.58)" stroke="#e9d5ff" stroke-opacity=".35"/>
  <text x="32" y="42" fill="#e9d5ff" font-size="17" font-family="Arial" font-weight="900">H007</text>
  <text x="348" y="42" text-anchor="end" fill="#fff" font-size="22">🏝️</text>
  <g transform="translate(80,85) scale(.45)"><polygon points="25,4 75,4 100,50 75,96 25,96 0,50" fill="#ef4444" stroke="#fff" stroke-width="3"/></g>
<g transform="translate(135,118) scale(.45)"><polygon points="25,4 75,4 100,50 75,96 25,96 0,50" fill="#34d399" stroke="#fff" stroke-width="3"/></g>
<g transform="translate(190,95) scale(.45)"><polygon points="25,4 75,4 100,50 75,96 25,96 0,50" fill="#facc15" stroke="#fff" stroke-width="3"/></g>
<g transform="translate(245,118) scale(.45)"><polygon points="25,4 75,4 100,50 75,96 25,96 0,50" fill="#34d399" stroke="#fff" stroke-width="3"/></g>
<g transform="translate(300,145) scale(.45)"><polygon points="25,4 75,4 100,50 75,96 25,96 0,50" fill="#3b82f6" stroke="#fff" stroke-width="3"/></g>
  <rect x="26" y="174" width="328" height="18" rx="9" fill="rgba(255,255,255,.08)"/>
  <text x="190" y="188" text-anchor="middle" fill="#fff" font-size="13" font-family="Arial" font-weight="800">Island Conquest</text>
</svg>