<svg xmlns="http://www.w3.org/2000/svg" width="600" height="340" viewBox="0 0 600 340">
<defs><linearGradient id="bg" x1="0" y1="0" x2="1" y2="1"><stop stop-color="#0f172a"/><stop offset="1" stop-color="#164e63"/></linearGradient></defs>
<rect width="600" height="340" rx="28" fill="url(#bg)"/>
<rect x="24" y="24" width="86" height="36" rx="14" fill="#111827"/><text x="67" y="48" fill="#fff" text-anchor="middle" font-size="22" font-family="Arial" font-weight="900">H003</text>
<text x="130" y="48" fill="#fff" font-size="26" font-family="Arial,Microsoft YaHei" font-weight="900">看圖猜生字</text>
<rect x="70" y="86" width="300" height="210" rx="18" fill="#020617" stroke="rgba(255,255,255,.18)"/>
<g transform="translate(84,100)">
<rect width="48" height="38" fill="#22c55e"/><rect x="50" width="48" height="38" fill="#1e293b"/><rect x="100" width="48" height="38" fill="#1e293b"/><rect x="150" width="48" height="38" fill="#38bdf8"/><rect x="200" width="48" height="38" fill="#1e293b"/>
<rect y="40" width="48" height="38" fill="#1e293b"/><rect x="50" y="40" width="48" height="38" fill="#facc15"/><rect x="100" y="40" width="48" height="38" fill="#1e293b"/><rect x="150" y="40" width="48" height="38" fill="#1e293b"/><rect x="200" y="40" width="48" height="38" fill="#fb923c"/>
<rect y="80" width="48" height="38" fill="#1e293b"/><rect x="50" y="80" width="48" height="38" fill="#1e293b"/><rect x="100" y="80" width="48" height="38" fill="#a78bfa"/><rect x="150" y="80" width="48" height="38" fill="#1e293b"/><rect x="200" y="80" width="48" height="38" fill="#1e293b"/>
<rect y="120" width="48" height="38" fill="#38bdf8"/><rect x="50" y="120" width="48" height="38" fill="#1e293b"/><rect x="100" y="120" width="48" height="38" fill="#1e293b"/><rect x="150" y="120" width="48" height="38" fill="#22c55e"/><rect x="200" y="120" width="48" height="38" fill="#1e293b"/>
<rect y="160" width="48" height="38" fill="#1e293b"/><rect x="50" y="160" width="48" height="38" fill="#1e293b"/><rect x="100" y="160" width="48" height="38" fill="#facc15"/><rect x="150" y="160" width="48" height="38" fill="#1e293b"/><rect x="200" y="160" width="48" height="38" fill="#38bdf8"/>
</g>
<rect x="410" y="100" width="130" height="50" rx="16" fill="#38bdf8"/><text x="475" y="132" fill="#062033" text-anchor="middle" font-size="22" font-family="Arial,Microsoft YaHei" font-weight="900">第1組</text>
<rect x="410" y="166" width="130" height="50" rx="16" fill="#fb923c"/><text x="475" y="198" fill="#111827" text-anchor="middle" font-size="22" font-family="Arial,Microsoft YaHei" font-weight="900">第2組</text>
<text x="70" y="320" fill="#dbeafe" font-size="18" font-family="Arial,Microsoft YaHei">5×5 自動揭圖｜分組搶答｜老師判斷加分</text>
</svg>