<svg xmlns="http://www.w3.org/2000/svg" width="640" height="360" viewBox="0 0 380 214">
  <defs><linearGradient id="bg" x1="0" x2="1" y1="0" y2="1"><stop stop-color="#422006"/><stop offset="1" stop-color="#020617"/></linearGradient></defs>
  <rect width="380" height="214" rx="22" fill="url(#bg)"/>
  <rect x="18" y="16" width="344" height="182" rx="18" fill="rgba(15,23,42,.58)" stroke="#fde68a" stroke-opacity=".35"/>
  <text x="32" y="42" fill="#fde68a" font-size="17" font-family="Arial" font-weight="900">P008</text>
  <text x="348" y="42" text-anchor="end" fill="#fff" font-size="22">⏳</text>
  <line x1="70" y1="70" x2="70" y2="160" stroke="#facc15" stroke-width="6" stroke-linecap="round"/>
<circle cx="70" cy="75" r="13" fill="#fde68a"/><rect x="98" y="63" width="180" height="24" rx="12" fill="rgba(255,255,255,.18)" stroke="#fde68a" stroke-opacity=".35"/>
<circle cx="70" cy="105" r="13" fill="#fde68a"/><rect x="98" y="93" width="162" height="24" rx="12" fill="rgba(255,255,255,.18)" stroke="#fde68a" stroke-opacity=".35"/>
<circle cx="70" cy="135" r="13" fill="#fde68a"/><rect x="98" y="123" width="144" height="24" rx="12" fill="rgba(255,255,255,.18)" stroke="#fde68a" stroke-opacity=".35"/>
<circle cx="70" cy="165" r="13" fill="#fde68a"/><rect x="98" y="153" width="126" height="24" rx="12" fill="rgba(255,255,255,.18)" stroke="#fde68a" stroke-opacity=".35"/>
  <rect x="26" y="174" width="328" height="18" rx="9" fill="rgba(255,255,255,.08)"/>
  <text x="190" y="188" text-anchor="middle" fill="#fff" font-size="13" font-family="Arial" font-weight="800">Timeline Sorting</text>
</svg>