<svg xmlns="http://www.w3.org/2000/svg" width="640" height="360" viewBox="0 0 380 214">
  <defs>
    <linearGradient id="bg" x1="0" x2="1" y1="0" y2="1"><stop stop-color="#052e16"/><stop offset="1" stop-color="#020617"/></linearGradient>
    <marker id="arrow" markerWidth="10" markerHeight="10" refX="8" refY="3" orient="auto"><path d="M0,0 L0,6 L9,3 z" fill="#facc15"/></marker>
  </defs>
  <rect width="380" height="214" rx="22" fill="url(#bg)"/>
  <rect x="18" y="16" width="344" height="182" rx="18" fill="rgba(15,23,42,.58)" stroke="#86efac" stroke-opacity=".35"/>
  <text x="32" y="42" fill="#86efac" font-size="17" font-family="Arial" font-weight="900">S004</text>
  <text x="348" y="42" text-anchor="end" fill="#fff" font-size="22">🎁</text>
  <rect x="70" y="90" width="56" height="45" rx="8" fill="#92400e" stroke="#fbbf24" stroke-width="3"/><text x="98" y="121" text-anchor="middle" font-size="22">?</text>
<rect x="160" y="90" width="56" height="45" rx="8" fill="#92400e" stroke="#fbbf24" stroke-width="3"/><text x="188" y="121" text-anchor="middle" font-size="22">?</text>
<rect x="250" y="90" width="56" height="45" rx="8" fill="#92400e" stroke="#fbbf24" stroke-width="3"/><text x="278" y="121" text-anchor="middle" font-size="22">?</text>
<rect x="115" y="150" width="56" height="45" rx="8" fill="#92400e" stroke="#fbbf24" stroke-width="3"/><text x="143" y="181" text-anchor="middle" font-size="22">?</text>
<rect x="205" y="150" width="56" height="45" rx="8" fill="#92400e" stroke="#fbbf24" stroke-width="3"/><text x="233" y="181" text-anchor="middle" font-size="22">?</text>
  <rect x="26" y="174" width="328" height="18" rx="9" fill="rgba(255,255,255,.08)"/>
  <text x="190" y="188" text-anchor="middle" fill="#fff" font-size="13" font-family="Arial" font-weight="800">Treasure Box</text>
</svg>