<svg xmlns="http://www.w3.org/2000/svg" width="640" height="360" viewBox="0 0 380 214">
  <defs>
    <linearGradient id="bg" x1="0" x2="1" y1="0" y2="1"><stop stop-color="#1e1b4b"/><stop offset="1" stop-color="#020617"/></linearGradient>
    <marker id="arrow" markerWidth="10" markerHeight="10" refX="8" refY="3" orient="auto"><path d="M0,0 L0,6 L9,3 z" fill="#facc15"/></marker>
  </defs>
  <rect width="380" height="214" rx="22" fill="url(#bg)"/>
  <rect x="18" y="16" width="344" height="182" rx="18" fill="rgba(15,23,42,.58)" stroke="#e9d5ff" stroke-opacity=".35"/>
  <text x="32" y="42" fill="#e9d5ff" font-size="17" font-family="Arial" font-weight="900">H006</text>
  <text x="348" y="42" text-anchor="end" fill="#fff" font-size="22">🖼️</text>
  <rect x="65" y="88" width="40" height="37" rx="6" fill="#ef4444" opacity="0.45"/>
<rect x="110" y="88" width="40" height="37" rx="6" fill="#ef4444" opacity="0.9"/>
<rect x="65" y="130" width="40" height="37" rx="6" fill="#ef4444" opacity="0.9"/>
<rect x="110" y="130" width="40" height="37" rx="6" fill="#ef4444" opacity="0.45"/>
<rect x="215" y="88" width="40" height="37" rx="6" fill="#3b82f6" opacity="0.45"/>
<rect x="260" y="88" width="40" height="37" rx="6" fill="#3b82f6" opacity="0.9"/>
<rect x="215" y="130" width="40" height="37" rx="6" fill="#3b82f6" opacity="0.9"/>
<rect x="260" y="130" width="40" height="37" rx="6" fill="#3b82f6" opacity="0.45"/>
<text x="190" y="132" text-anchor="middle" font-size="28" font-weight="900">VS</text>
  <rect x="26" y="174" width="328" height="18" rx="9" fill="rgba(255,255,255,.08)"/>
  <text x="190" y="188" text-anchor="middle" fill="#fff" font-size="13" font-family="Arial" font-weight="800">Puzzle Duel</text>
</svg>