<svg xmlns="http://www.w3.org/2000/svg" width="640" height="360" viewBox="0 0 380 214">
  <defs>
    <linearGradient id="bg" x1="0" x2="1" y1="0" y2="1"><stop stop-color="#052e16"/><stop offset="1" stop-color="#020617"/></linearGradient>
    <marker id="arrow" markerWidth="10" markerHeight="10" refX="8" refY="3" orient="auto"><path d="M0,0 L0,6 L9,3 z" fill="#facc15"/></marker>
  </defs>
  <rect width="380" height="214" rx="22" fill="url(#bg)"/>
  <rect x="18" y="16" width="344" height="182" rx="18" fill="rgba(15,23,42,.58)" stroke="#86efac" stroke-opacity=".35"/>
  <text x="32" y="42" fill="#86efac" font-size="17" font-family="Arial" font-weight="900">S007</text>
  <text x="348" y="42" text-anchor="end" fill="#fff" font-size="22">🔨</text>
  <ellipse cx="80" cy="158" rx="30" ry="13" fill="#292524"/><circle cx="80" cy="120" r="24" fill="#a16207"/><text x="80" y="128" text-anchor="middle" font-size="20">❓</text>
<ellipse cx="150" cy="158" rx="30" ry="13" fill="#292524"/><circle cx="150" cy="120" r="24" fill="#a16207"/><text x="150" y="128" text-anchor="middle" font-size="20">❓</text>
<ellipse cx="220" cy="158" rx="30" ry="13" fill="#292524"/><circle cx="220" cy="120" r="24" fill="#a16207"/><text x="220" y="128" text-anchor="middle" font-size="20">❓</text>
<ellipse cx="290" cy="158" rx="30" ry="13" fill="#292524"/><circle cx="290" cy="120" r="24" fill="#a16207"/><text x="290" y="128" text-anchor="middle" font-size="20">❓</text>
  <rect x="26" y="174" width="328" height="18" rx="9" fill="rgba(255,255,255,.08)"/>
  <text x="190" y="188" text-anchor="middle" fill="#fff" font-size="13" font-family="Arial" font-weight="800">Whack Mole</text>
</svg>