<svg xmlns="http://www.w3.org/2000/svg" width="1280" height="760" viewBox="0 0 1280 760">
<defs>
  <linearGradient id="sea" x1="0" y1="0" x2="0" y2="1"><stop stop-color="#94d9ff"/><stop offset="1" stop-color="#255f92"/></linearGradient>
  <radialGradient id="isle" cx="50%" cy="35%" r="60%"><stop stop-color="#ddf6a3"/><stop offset="1" stop-color="#63a85d"/></radialGradient>
</defs>
<rect width="1280" height="760" rx="40" fill="url(#sea)"/>
<g opacity=".45" fill="#ffffff"><ellipse cx="180" cy="110" rx="70" ry="24"/><ellipse cx="1070" cy="130" rx="84" ry="28"/><ellipse cx="930" cy="88" rx="40" ry="16"/></g>
<circle cx="640" cy="340" r="205" fill="#dbfbff" opacity=".96"/><circle cx="640" cy="340" r="162" fill="#53b7db" opacity=".92"/><circle cx="640" cy="340" r="118" fill="#dbfbff" opacity=".96"/><circle cx="640" cy="340" r="76" fill="#53b7db" opacity=".92"/>
<circle cx="640" cy="340" r="114" fill="url(#isle)" stroke="#ffffff66" stroke-width="10"/>
<g stroke="#f9feff" stroke-width="12" stroke-linecap="round" opacity=".95">
  <line x1="640" y1="340" x2="640" y2="110"/><line x1="640" y1="340" x2="835" y2="225"/><line x1="640" y1="340" x2="835" y2="455"/><line x1="640" y1="340" x2="640" y2="570"/><line x1="640" y1="340" x2="445" y2="455"/><line x1="640" y1="340" x2="445" y2="225"/>
</g>
<g fill="#eefcff" opacity=".9"><circle cx="640" cy="152" r="13"/><circle cx="800" cy="244" r="13"/><circle cx="800" cy="436" r="13"/><circle cx="640" cy="530" r="13"/><circle cx="480" cy="436" r="13"/><circle cx="480" cy="244" r="13"/></g>
<g fill="#83c9ff" opacity=".55">
  <ellipse cx="170" cy="600" rx="120" ry="55"/><ellipse cx="1110" cy="595" rx="118" ry="60"/><ellipse cx="640" cy="700" rx="146" ry="40"/>
</g>
<text x="640" y="722" text-anchor="middle" font-family="Arial,Microsoft YaHei" font-size="28" fill="#ffffffcc">Royal Archipelago Resource Map</text>
</svg>